<svg width="69" height="51" viewBox="0 0 69 51" fill="none" xmlns="http://www.w3.org/2000/svg">
<path d="M6.144 45.056H11.376C13.024 45.056 13.28 44.64 13.52 42.32C14.016 42.624 14.88 42.944 15.44 43.056C15.072 46.064 14.368 46.944 11.456 46.944H6.16C3.072 46.944 2.128 46.336 2.128 43.92V36.464H4.096V38.64H11.36V35.232H1.488V33.344H13.344V41.264H11.36V40.512H4.096V43.92C4.096 44.912 4.384 45.056 6.144 45.056ZM26.768 40.464V41.456H28.512V40.464H26.768ZM32.816 41.456V42.832H29.856C30.832 43.328 31.872 43.92 32.512 44.368L30.816 45.152C30.24 44.656 29.216 43.968 28.256 43.488L29.248 42.832H25.888L27.248 43.296C26.448 44.032 25.168 44.784 24.112 45.216C23.776 44.896 23.104 44.336 22.688 44.08C23.696 43.76 24.752 43.312 25.424 42.832H22.496V41.456H25.024V40.464H23.072V39.088H25.024V38.24H26.768V39.088H28.512V38.24H30.272V39.088H32.24V40.464H30.272V41.456H32.816ZM30.88 34.16H29.456V34.88H30.88V34.16ZM31.552 38.016H29.744C28.304 38.016 27.952 37.472 27.952 36.096V32.992H32.496V36.032H29.456V36.112C29.456 36.56 29.52 36.72 29.856 36.72H31.504C31.824 36.72 32.336 36.704 32.608 36.624C32.64 37.024 32.688 37.552 32.736 37.904C32.464 37.984 31.984 38.016 31.552 38.016ZM25.76 34.144H24.384V34.864H25.76V34.144ZM24.384 36.8L27.376 36.384C27.248 36.768 27.136 37.36 27.104 37.68C23.84 38.224 23.328 38.32 23.008 38.48C22.928 38.096 22.624 37.408 22.384 37.072C22.64 36.944 22.912 36.672 22.912 36.032V32.976H27.344V36.016H24.384V36.8ZM22.032 34.864L20.56 35.92C20.144 35.248 19.216 34.128 18.48 33.344L19.888 32.464C20.64 33.232 21.552 34.224 22.032 34.864ZM21.616 39.984L22.512 40.32C22.336 41.552 22.096 42.64 21.76 43.584C22.688 45.264 24.496 45.472 27.152 45.488C28.848 45.488 31.488 45.392 33.28 45.216C33.024 45.6 32.784 46.464 32.688 46.976C31.024 47.088 28.976 47.12 27.104 47.12C24.144 47.12 22.288 46.816 21.072 45.136C20.544 46.112 19.92 46.848 19.184 47.408C18.944 47.024 18.32 46.368 17.968 46.128C19.28 45.216 20.208 43.632 20.656 41.504H19.616C19.28 41.504 18.832 41.616 18.688 41.744C18.592 41.36 18.256 40.56 18.08 40.224C18.336 40.16 18.592 40.032 18.848 39.712C19.088 39.44 19.648 38.544 20.144 37.696H18.336V36.192H21.12L21.376 36.096L22.528 36.544C22.032 37.424 21.152 38.928 20.432 40.032H21.312L21.616 39.984ZM42.544 41.904V42.416H43.696V41.904H42.544ZM41.536 43.216V41.088H44.784V43.216H41.536ZM40.88 40.624V43.68H45.392V40.624H40.88ZM39.424 44.736V39.584H46.928V44.736H39.424ZM41.488 36.016V36.656H44.768V36.016H41.488ZM43.936 38.08H47.744V39.12H38.688V38.08H42.336V37.6H39.984V35.056H46.368V37.6H43.936V38.08ZM38.144 45.264H48.224V34.544H38.144V45.264ZM36.384 32.976H50.08V47.376H48.224V46.816H38.144V47.376H36.384V32.976ZM64.72 43.6H59.696V44.176H64.72V43.6ZM59.696 45.776H64.72V45.168H59.696V45.776ZM57.856 47.392V42.448H66.656V47.392H64.72V46.928H59.696V47.392H57.856ZM59.056 39.344L60.192 38.752C60.56 39.184 60.96 39.792 61.12 40.208L59.952 40.864C59.808 40.432 59.424 39.808 59.056 39.344ZM64.096 40.832L63.024 40.24C63.36 39.856 63.792 39.168 64.032 38.704L65.216 39.344C64.832 39.92 64.416 40.464 64.096 40.832ZM65.296 35.376V34.512H56.832V35.376H65.296ZM60.928 37.648H63.504C63.696 37.376 63.904 37.072 64.048 36.816H60.384C60.608 37.072 60.8 37.392 60.928 37.648ZM65.36 40.912V38.672H63.008V40.912H65.36ZM58.928 38.672V40.912H61.264V38.672H58.928ZM67.2 33.056V36.816H64.736L65.792 37.088C65.632 37.28 65.472 37.472 65.312 37.648H67.2V41.952H57.184V37.648H59.168C59.04 37.456 58.912 37.264 58.768 37.088L59.584 36.816H56.832V37.776C56.832 40.544 56.576 44.672 54.928 47.312C54.56 46.992 53.728 46.512 53.232 46.32C54.8 43.904 54.928 40.304 54.928 37.776V33.056H67.2Z" fill="#247BA0"/>
<g clip-path="url(#clip0_942_1119)">
<path d="M23.0559 7.44503C23.1803 7.15907 23.4151 7.00783 23.6886 6.88137C27.3974 5.16119 31.103 3.43782 34.8073 1.70874C35.0891 1.5772 35.3436 1.57466 35.6235 1.70493C39.3634 3.44926 43.1058 5.18978 46.8482 6.92776C47.1604 7.07265 47.3788 7.27854 47.3743 7.64392C47.3705 7.99787 47.156 8.19931 46.852 8.33911C45.8176 8.81507 44.7863 9.29675 43.7544 9.77716C43.6757 9.81338 43.5989 9.85341 43.4739 9.91569C43.5843 9.97224 43.6617 10.0155 43.741 10.0523C44.7806 10.5359 45.8195 11.0201 46.8609 11.4999C47.1293 11.6238 47.3261 11.7998 47.3711 12.1055C47.42 12.4353 47.2487 12.7155 46.8806 12.8877C45.8423 13.3745 44.8022 13.8562 43.7633 14.3397C43.6801 14.3785 43.5983 14.4211 43.4764 14.4815C43.5925 14.5412 43.6719 14.5857 43.7537 14.6238C44.8072 15.115 45.8607 15.6062 46.9148 16.0949C47.1985 16.2264 47.3705 16.4387 47.3737 16.7564C47.3775 17.0849 47.2055 17.3067 46.911 17.4395C46.8533 17.4656 46.7974 17.4948 46.7397 17.5215C45.1696 18.2516 43.6002 18.9824 42.0301 19.7126C39.9225 20.6931 37.8136 21.6691 35.7104 22.6592C35.3652 22.8218 35.065 22.8174 34.7191 22.6554C31.0529 20.9396 27.3822 19.2334 23.7102 17.5304C23.4297 17.4001 23.1847 17.2508 23.0552 16.9566C23.0552 16.8295 23.0552 16.703 23.0552 16.5759C23.179 16.2906 23.4119 16.1375 23.6867 16.0123C24.6996 15.5516 25.7067 15.0782 26.7158 14.6092C26.7894 14.5749 26.8599 14.5323 26.9582 14.4796C26.8472 14.4236 26.7716 14.3836 26.6942 14.3474C25.6921 13.8816 24.6926 13.4107 23.6867 12.9538C23.4119 12.8286 23.1809 12.6736 23.0552 12.3902C23.0552 12.2631 23.0552 12.1366 23.0552 12.0095C23.179 11.7242 23.4119 11.5711 23.6867 11.4459C24.6996 10.9852 25.7067 10.5117 26.7158 10.0428C26.7894 10.0085 26.8599 9.96589 26.9582 9.91315C26.8472 9.85723 26.7716 9.81719 26.6942 9.78097C25.6921 9.31518 24.6926 8.84431 23.6867 8.38741C23.4119 8.26223 23.1809 8.10717 23.0552 7.82376C23.0559 7.69857 23.0559 7.57148 23.0559 7.44503ZM44.9621 7.63884C44.8358 7.57529 44.7552 7.53272 44.6721 7.49396C41.6195 6.07243 38.5663 4.65282 35.5169 3.22495C35.303 3.12518 35.1329 3.12709 34.9216 3.22622C32.2009 4.49968 29.4771 5.76424 26.7539 7.03134C26.342 7.22325 25.9314 7.4177 25.4827 7.62867C25.583 7.68205 25.6407 7.71764 25.7023 7.74623C28.805 9.19063 31.9083 10.6338 35.0098 12.082C35.1589 12.1519 35.2789 12.1519 35.4305 12.0807C38.2737 10.7526 41.1194 9.4302 43.9644 8.10654C44.2824 7.95848 44.6003 7.80851 44.9621 7.63884ZM44.9722 12.2002C43.9378 11.7185 42.9624 11.2686 41.992 10.8072C41.8257 10.7284 41.6944 10.731 41.5281 10.8091C39.5963 11.7153 37.6581 12.6081 35.7282 13.5194C35.376 13.6859 35.0707 13.6903 34.7153 13.5225C32.7791 12.6069 30.8339 11.7109 28.8938 10.8022C28.7453 10.7323 28.6248 10.7227 28.4731 10.7958C27.8753 11.0837 27.2698 11.3575 26.6682 11.6378C26.2842 11.8163 25.9016 11.9974 25.4814 12.1944C25.5779 12.2465 25.6356 12.2821 25.6972 12.3107C28.7999 13.7551 31.9026 15.1983 35.0041 16.6452C35.1519 16.7138 35.2713 16.7208 35.4242 16.6496C38.2667 15.3215 41.1124 13.9991 43.9568 12.6755C44.2779 12.5268 44.5965 12.3762 44.9722 12.2002ZM44.9621 16.771C44.8485 16.7138 44.7863 16.6808 44.7228 16.6509C43.8128 16.2277 42.9008 15.8083 41.9939 15.3775C41.8295 15.2993 41.7007 15.2929 41.5306 15.373C39.5702 16.2938 37.6042 17.2019 35.6438 18.1214C35.3468 18.2605 35.0821 18.2574 34.7845 18.1175C32.8171 17.1936 30.8441 16.2823 28.8754 15.3616C28.7326 15.2948 28.6203 15.2917 28.4769 15.3597C27.556 15.7969 26.6301 16.2239 25.7061 16.6547C25.6407 16.6852 25.5773 16.7208 25.484 16.7697C25.5969 16.8269 25.6655 16.8651 25.7372 16.8981C28.8037 18.3253 31.8715 19.7507 34.9355 21.1843C35.1424 21.2809 35.3049 21.2783 35.5099 21.1824C38.3016 19.8752 41.0965 18.5763 43.8908 17.2756C44.2323 17.1154 44.5737 16.954 44.9621 16.771Z" fill="#247BA0"/>
<path d="M23.0558 7.82562C23.1815 8.10904 23.4125 8.26409 23.6873 8.38927C24.6932 8.84617 25.6927 9.31704 26.6948 9.78283C26.7722 9.81906 26.8478 9.85909 26.9588 9.91501C26.8598 9.96839 26.79 10.0103 26.7164 10.0446C25.7073 10.5142 24.7002 10.9877 23.6873 11.4477C23.4125 11.5729 23.1796 11.7261 23.0558 12.0114C23.0558 10.6159 23.0558 9.22045 23.0558 7.82562Z" fill="white"/>
<path d="M23.0558 12.392C23.1815 12.6754 23.4125 12.8305 23.6873 12.9557C24.6932 13.4126 25.6927 13.8835 26.6948 14.3492C26.7722 14.3855 26.8478 14.4255 26.9588 14.4814C26.8598 14.5348 26.79 14.5767 26.7164 14.611C25.7073 15.0807 24.7002 15.5541 23.6873 16.0141C23.4125 16.1393 23.1796 16.2925 23.0558 16.5778C23.0558 15.1823 23.0558 13.7869 23.0558 12.392Z" fill="white"/>
<path d="M45.9534 22.9514C45.9534 22.5346 45.9515 22.1546 45.954 21.7746C45.9572 21.3183 46.2605 20.9955 46.6762 21.0019C47.0824 21.0076 47.3756 21.3259 47.3781 21.7714C47.3813 22.3814 47.3813 22.9915 47.3781 23.6022C47.3756 24.0813 47.0855 24.3755 46.6115 24.3781C45.994 24.3812 45.3771 24.3819 44.7596 24.3781C44.3211 24.3749 44.0038 24.0679 44.007 23.66C44.0095 23.2539 44.3287 22.9559 44.7698 22.9527C45.1556 22.9489 45.5415 22.9514 45.9534 22.9514Z" fill="#247BA0"/>
<path d="M45.9534 1.4285C45.9534 1.84536 45.9515 2.22536 45.954 2.60537C45.9572 3.06163 46.2605 3.38444 46.6762 3.37808C47.0824 3.37237 47.3756 3.054 47.3781 2.60854C47.3813 1.9985 47.3813 1.38846 47.3781 0.777789C47.3756 0.298653 47.0855 0.00443607 46.6115 0.00189424C45.994 -0.00128305 45.3771 -0.00191851 44.7596 0.00189424C44.3211 0.00507153 44.0038 0.311998 44.007 0.719962C44.0095 1.12602 44.3287 1.42405 44.7698 1.42723C45.1556 1.43104 45.5415 1.4285 45.9534 1.4285Z" fill="#247BA0"/>
<path d="M24.4267 22.9514C24.4267 22.5346 24.4286 22.1546 24.426 21.7746C24.4229 21.3183 24.1195 20.9955 23.7038 21.0019C23.2977 21.0076 23.0045 21.3259 23.0019 21.7714C22.9987 22.3814 22.9987 22.9915 23.0019 23.6022C23.0045 24.0813 23.2945 24.3755 23.7686 24.3781C24.3861 24.3812 25.0029 24.3819 25.6204 24.3781C26.0589 24.3749 26.3763 24.0679 26.3731 23.66C26.3705 23.2539 26.0513 22.9559 25.6103 22.9527C25.2244 22.9489 24.8385 22.9514 24.4267 22.9514Z" fill="#247BA0"/>
<path d="M24.4267 1.42847C24.4267 1.84533 24.4286 2.22534 24.426 2.60534C24.4229 3.0616 24.1195 3.38441 23.7038 3.37806C23.2977 3.37234 23.0045 3.05398 23.0019 2.60852C22.9987 1.99848 22.9987 1.38844 23.0019 0.777764C23.0045 0.299264 23.2951 0.00504642 23.7686 0.00250459C24.3861 -0.000672703 25.0029 -0.00130816 25.6204 0.00250459C26.0589 0.00568188 26.3763 0.312608 26.3731 0.720573C26.3705 1.12663 26.0513 1.42466 25.6103 1.42784C25.2244 1.43102 24.8385 1.42847 24.4267 1.42847Z" fill="#247BA0"/>
<path d="M44.9722 12.2001C44.5972 12.3762 44.2779 12.5261 43.9581 12.6755C41.113 13.9991 38.268 15.3215 35.4255 16.6496C35.2725 16.7208 35.1526 16.7144 35.0053 16.6452C31.9045 15.1982 28.8012 13.7551 25.6985 12.3107C25.6369 12.2821 25.5792 12.2465 25.4827 12.1944C25.9028 11.9974 26.2855 11.8163 26.6695 11.6378C27.2711 11.3575 27.8759 11.0836 28.4743 10.7958C28.626 10.7227 28.7466 10.7322 28.8951 10.8021C30.8345 11.7108 32.7803 12.6068 34.7166 13.5225C35.0713 13.6903 35.3766 13.6858 35.7295 13.5194C37.6587 12.6081 39.5975 11.7153 41.5294 10.8091C41.6956 10.731 41.827 10.7284 41.9933 10.8072C42.9623 11.2692 43.9378 11.7185 44.9722 12.2001Z" fill="white"/>
<path d="M44.9621 16.771C44.573 16.954 44.2323 17.1154 43.8902 17.2743C41.0959 18.5757 38.3004 19.8739 35.5092 21.1811C35.3043 21.277 35.1418 21.2802 34.9349 21.183C31.8709 19.7494 28.8031 18.324 25.7366 16.8968C25.6655 16.8638 25.5963 16.8256 25.4833 16.7684C25.5766 16.7201 25.6401 16.6839 25.7055 16.6534C26.6295 16.2226 27.5554 15.7956 28.4763 15.3584C28.6197 15.2904 28.7326 15.2935 28.8748 15.3603C30.8434 16.281 32.8165 17.1923 34.7839 18.1163C35.0815 18.2561 35.3461 18.2592 35.6432 18.1201C37.6035 17.2006 39.5696 16.2925 41.53 15.3717C41.7001 15.2916 41.8289 15.2986 41.9933 15.3762C42.9002 15.807 43.8121 16.2258 44.7222 16.6496C44.7863 16.6808 44.8485 16.7138 44.9621 16.771Z" fill="white"/>
</g>
<defs>
<clipPath id="clip0_942_1119">
<rect width="24.38" height="24.38" fill="white" transform="translate(23)"/>
</clipPath>
</defs>
</svg>
