<svg width="22" height="21" viewBox="0 0 22 21" fill="none" xmlns="http://www.w3.org/2000/svg">
<g clip-path="url(#clip0_1158_881)">
<path d="M0.669175 6.27719C0.774051 6.03609 0.972031 5.90857 1.20265 5.80195C4.32967 4.3516 7.45401 2.89857 10.5773 1.44071C10.8149 1.32981 11.0294 1.32766 11.2654 1.4375C14.4186 2.90821 17.574 4.37571 20.7294 5.84106C20.9926 5.96322 21.1767 6.13681 21.173 6.44489C21.1697 6.74331 20.9889 6.91316 20.7326 7.03103C19.8604 7.43233 18.9909 7.83845 18.1209 8.24349C18.0545 8.27403 17.9898 8.30779 17.8843 8.36029C17.9775 8.40798 18.0427 8.44441 18.1096 8.47549C18.9861 8.88321 19.862 9.29148 20.7401 9.69599C20.9664 9.80047 21.1323 9.94888 21.1703 10.2066C21.2115 10.4847 21.067 10.7209 20.7567 10.8661C19.8813 11.2765 19.0043 11.6827 18.1283 12.0904C18.0582 12.1231 17.9892 12.159 17.8865 12.2099C17.9844 12.2602 18.0513 12.2977 18.1203 12.3299C19.0086 12.744 19.8968 13.1582 20.7856 13.5702C21.0247 13.6811 21.1697 13.8601 21.1724 14.128C21.1756 14.405 21.0306 14.5919 20.7823 14.7039C20.7337 14.7259 20.6866 14.7505 20.6379 14.773C19.3141 15.3886 17.9908 16.0048 16.667 16.6204C14.89 17.4471 13.112 18.2701 11.3387 19.1048C11.0476 19.242 10.7945 19.2382 10.5029 19.1016C7.41174 17.655 4.31682 16.2164 1.22084 14.7805C0.984338 14.6707 0.777797 14.5448 0.66864 14.2967C0.66864 14.1896 0.66864 14.0829 0.66864 13.9758C0.772981 13.7352 0.969356 13.6061 1.20105 13.5006C2.05504 13.1121 2.90421 12.713 3.75499 12.3176C3.81706 12.2886 3.87645 12.2527 3.95939 12.2083C3.86575 12.1611 3.80208 12.1274 3.7368 12.0968C2.8919 11.7041 2.04915 11.3071 1.20105 10.9219C0.969356 10.8163 0.774586 10.6856 0.66864 10.4466C0.66864 10.3395 0.66864 10.2328 0.66864 10.1257C0.772981 9.88512 0.969356 9.756 1.20105 9.65045C2.05504 9.26201 2.90421 8.86285 3.75499 8.46745C3.81706 8.43852 3.87645 8.40262 3.95939 8.35815C3.86575 8.311 3.80208 8.27725 3.7368 8.24671C2.8919 7.85398 2.04915 7.45697 1.20105 7.07175C0.969356 6.9662 0.774586 6.83547 0.66864 6.59651C0.669175 6.49096 0.669175 6.38381 0.669175 6.27719ZM19.1391 6.4406C19.0326 6.38702 18.9647 6.35112 18.8946 6.31844C16.3208 5.11991 13.7466 3.92298 11.1755 2.71908C10.9952 2.63496 10.8518 2.63657 10.6736 2.72015C8.3797 3.79385 6.08313 4.86005 3.78709 5.9284C3.43983 6.0902 3.09363 6.25415 2.71533 6.43203C2.79987 6.47703 2.84856 6.50704 2.90046 6.53115C5.51648 7.74897 8.13303 8.96572 10.748 10.1868C10.8737 10.2457 10.9748 10.2457 11.1027 10.1857C13.4999 9.06592 15.8992 7.95096 18.298 6.83493C18.566 6.7101 18.8341 6.58365 19.1391 6.4406ZM19.1477 10.2864C18.2755 9.8803 17.4531 9.50097 16.6349 9.11199C16.4947 9.04556 16.384 9.0477 16.2438 9.1136C14.615 9.87762 12.9809 10.6304 11.3537 11.3987C11.0567 11.5391 10.7993 11.5428 10.4997 11.4014C8.86716 10.6293 7.22713 9.87387 5.59139 9.10771C5.46618 9.04877 5.36451 9.04073 5.23663 9.10235C4.73258 9.34506 4.22212 9.57598 3.71486 9.81225C3.39113 9.96281 3.06848 10.1155 2.71426 10.2816C2.79559 10.3255 2.84428 10.3555 2.89618 10.3796C5.5122 11.5975 8.12821 12.8142 10.7432 14.0342C10.8678 14.0921 10.9684 14.0979 11.0974 14.0379C13.494 12.9182 15.8933 11.8032 18.2915 10.6872C18.5623 10.5618 18.8309 10.4348 19.1477 10.2864ZM19.1391 14.1403C19.0433 14.0921 18.9909 14.0642 18.9374 14.039C18.1701 13.6822 17.4012 13.3286 16.6365 12.9653C16.498 12.8994 16.3893 12.8941 16.2459 12.9616C14.5931 13.7379 12.9354 14.5035 11.2825 15.2788C11.0321 15.3961 10.809 15.3935 10.558 15.2756C8.89926 14.4966 7.23569 13.7283 5.57587 12.9519C5.45548 12.8957 5.36077 12.893 5.23984 12.9503C4.46344 13.3189 3.68275 13.679 2.90367 14.0422C2.84856 14.0679 2.79505 14.0979 2.7164 14.1392C2.81164 14.1874 2.86943 14.2196 2.92989 14.2474C5.51541 15.4508 8.10199 16.6525 10.6854 17.8613C10.8598 17.9427 10.9968 17.9406 11.1696 17.8597C13.5234 16.7576 15.8799 15.6624 18.2359 14.5657C18.5238 14.4307 18.8116 14.2946 19.1391 14.1403Z" fill="#4D4D4D"/>
<path d="M0.66925 6.59811C0.775197 6.83707 0.969966 6.9678 1.20166 7.07335C2.04976 7.45857 2.89251 7.85559 3.73741 8.24831C3.80269 8.27885 3.86636 8.31261 3.96 8.35975C3.87653 8.40476 3.81767 8.44012 3.7556 8.46905C2.90482 8.86499 2.05565 9.26415 1.20166 9.65205C0.969966 9.7576 0.773591 9.88672 0.66925 10.1273C0.66925 8.95072 0.66925 7.77415 0.66925 6.59811Z" fill="white"/>
<path d="M0.66925 10.4482C0.775197 10.6872 0.969966 10.8179 1.20166 10.9235C2.04976 11.3087 2.89251 11.7057 3.73741 12.0984C3.80269 12.129 3.86636 12.1627 3.96 12.2099C3.87653 12.2549 3.81767 12.2902 3.7556 12.3192C2.90482 12.7151 2.05565 13.1143 1.20166 13.5022C0.969966 13.6077 0.773591 13.7368 0.66925 13.9774C0.66925 12.8008 0.66925 11.6243 0.66925 10.4482Z" fill="white"/>
<path d="M19.975 19.3513C19.975 18.9998 19.9734 18.6794 19.9755 18.359C19.9782 17.9743 20.234 17.7021 20.5844 17.7075C20.9269 17.7123 21.1741 17.9807 21.1762 18.3563C21.1789 18.8707 21.1789 19.385 21.1762 19.8999C21.1741 20.3039 20.9296 20.5519 20.5299 20.5541C20.0092 20.5568 19.4891 20.5573 18.9685 20.5541C18.5987 20.5514 18.3312 20.2926 18.3339 19.9486C18.336 19.6063 18.6052 19.355 18.977 19.3523C19.3024 19.3491 19.6277 19.3513 19.975 19.3513Z" fill="#4D4D4D"/>
<path d="M19.975 1.20444C19.975 1.55591 19.9734 1.8763 19.9755 2.1967C19.9782 2.58139 20.234 2.85356 20.5844 2.8482C20.9269 2.84338 21.1741 2.57496 21.1762 2.19938C21.1789 1.68503 21.1789 1.17068 21.1762 0.655798C21.1741 0.251821 20.9296 0.00375503 20.5299 0.00161191C20.0092 -0.00106698 19.4891 -0.00160276 18.9685 0.00161191C18.5987 0.00429081 18.3312 0.263072 18.3339 0.607042C18.336 0.949404 18.6052 1.20068 18.977 1.20336C19.3024 1.20658 19.6277 1.20444 19.975 1.20444Z" fill="#4D4D4D"/>
<path d="M1.82497 19.3513C1.82497 18.9998 1.82657 18.6794 1.82443 18.359C1.82176 17.9743 1.56599 17.7021 1.21551 17.7075C0.873059 17.7123 0.625851 17.9807 0.623711 18.3563C0.621035 18.8707 0.621035 19.385 0.623711 19.8999C0.625851 20.3039 0.870383 20.5519 1.27009 20.5541C1.79072 20.5568 2.31082 20.5573 2.83146 20.5541C3.2012 20.5514 3.46874 20.2926 3.46606 19.9486C3.46392 19.6063 3.19478 19.355 2.8229 19.3523C2.49757 19.3491 2.17224 19.3513 1.82497 19.3513Z" fill="#4D4D4D"/>
<path d="M1.82491 1.20442C1.82491 1.55589 1.82651 1.87628 1.82437 2.19668C1.8217 2.58137 1.56593 2.85354 1.21545 2.84819C0.872997 2.84336 0.62579 2.57494 0.62365 2.19936C0.620974 1.68501 0.620974 1.17066 0.62365 0.655781C0.62579 0.252339 0.870857 0.00427383 1.27003 0.00213071C1.79066 -0.000548182 2.31076 -0.00108396 2.8314 0.00213071C3.20114 0.0048096 3.46868 0.263591 3.466 0.607561C3.46386 0.949923 3.19472 1.2012 2.82283 1.20388C2.4975 1.20656 2.17217 1.20442 1.82491 1.20442Z" fill="#4D4D4D"/>
<path d="M19.1477 10.2864C18.8315 10.4348 18.5624 10.5613 18.2927 10.6872C15.8939 11.8032 13.4951 12.9182 11.0985 14.0379C10.9696 14.0979 10.8684 14.0926 10.7443 14.0342C8.12988 12.8142 5.51333 11.5975 2.89732 10.3796C2.84542 10.3555 2.79673 10.3255 2.71539 10.2816C3.06962 10.1155 3.39227 9.9628 3.716 9.81225C4.22325 9.57597 4.73318 9.34505 5.23777 9.10234C5.36565 9.04073 5.46732 9.04877 5.59253 9.1077C7.22773 9.87387 8.86829 10.6293 10.5008 11.4014C10.7999 11.5428 11.0573 11.5391 11.3548 11.3987C12.9815 10.6304 14.6161 9.87762 16.2449 9.1136C16.3851 9.04769 16.4959 9.04555 16.6361 9.11199C17.4531 9.5015 18.2756 9.88029 19.1477 10.2864Z" fill="white"/>
<path d="M19.1391 14.1403C18.8111 14.2946 18.5238 14.4307 18.2354 14.5646C15.8794 15.6619 13.5224 16.7565 11.1691 17.8586C10.9963 17.9395 10.8593 17.9422 10.6848 17.8602C8.10147 16.6515 5.51489 15.4497 2.92938 14.2464C2.86945 14.2185 2.81113 14.1863 2.71588 14.1381C2.79454 14.0974 2.84805 14.0669 2.90316 14.0411C3.68224 13.6779 4.46292 13.3178 5.23933 12.9492C5.36025 12.8919 5.4555 12.8946 5.57536 12.9508C7.23518 13.7272 8.89875 14.4955 10.5575 15.2745C10.8085 15.3924 11.0316 15.3951 11.282 15.2777C12.9349 14.5025 14.5925 13.7368 16.2454 12.9605C16.3888 12.893 16.4974 12.8989 16.636 12.9642C17.4007 13.3275 18.1696 13.6806 18.9369 14.0379C18.9909 14.0642 19.0434 14.092 19.1391 14.1403Z" fill="white"/>
</g>
<defs>
<clipPath id="clip0_1158_881">
<rect width="20.5557" height="20.5557" fill="white" transform="translate(0.622131)"/>
</clipPath>
</defs>
</svg>
