<svg width="69" height="51" viewBox="0 0 69 51" fill="none" xmlns="http://www.w3.org/2000/svg">
<path d="M27.5362 10.6875L22.3125 13.5L27.5362 16.3125M27.5362 10.6875L34.5 14.4375L41.4637 10.6875M27.5362 10.6875L22.3125 7.875L34.5 1.3125L46.6875 7.875L41.4637 10.6875M41.4637 10.6875L46.6875 13.5L41.4637 16.3125M41.4637 16.3125L46.6875 19.125L34.5 25.6875L22.3125 19.125L27.5362 16.3125M41.4637 16.3125L34.5 20.0625L27.5362 16.3125" stroke="#247BA0" stroke-width="1.5" stroke-linecap="round" stroke-linejoin="round"/>
<path d="M8.944 42.5355H11.504C11.072 42.1195 10.688 41.6715 10.352 41.2075H5.84C5.52 41.6715 5.12 42.1195 4.704 42.5355H7.008V41.5435H8.944V42.5355ZM5.52 38.9355V39.6555H10.528V38.9355H5.52ZM10.528 34.8875H5.52V35.5915H10.528V34.8875ZM5.52 36.9035V37.6075H10.528V36.9035H5.52ZM15.44 41.2075H12.512C13.36 41.9755 14.48 42.6635 15.632 43.0635C15.216 43.4155 14.64 44.0715 14.368 44.5355C13.504 44.1355 12.64 43.5595 11.856 42.8555V44.0395H8.944V45.0795H14.176V46.6475H1.984V45.0795H7.008V44.0395H4.176V43.0475C3.392 43.7195 2.528 44.2795 1.632 44.6795C1.36 44.2315 0.816 43.5755 0.416 43.2235C1.584 42.7915 2.768 42.0555 3.648 41.2075H0.576V39.6555H3.616V34.8875H1.408V33.3515H3.616V32.1515H5.52V33.3515H10.528V32.1515H12.48V33.3515H14.672V34.8875H12.48V39.6555H15.44V41.2075ZM29.68 38.9995V37.3355C29.296 37.9595 28.848 38.5035 28.384 38.9035C28.224 38.5515 27.904 37.9915 27.632 37.6875C28.352 37.1435 29.056 36.1675 29.488 35.1275H28.224V33.6875H29.68V32.1675H31.168V33.6875H32.928V35.1275H31.44C31.984 35.7035 33.008 36.8555 33.248 37.1755L32.208 38.4555C32 38.0075 31.584 37.2715 31.168 36.6315V38.9995H29.68ZM25.104 38.9995V36.9195C24.672 37.6235 24.192 38.2955 23.696 38.7595C23.536 38.3915 23.184 37.7995 22.912 37.4955C23.552 36.9835 24.208 36.0555 24.624 35.1275H23.456V33.6875H25.104V32.1675H26.576V33.6875H27.904V35.1275H26.592C26.992 35.4795 27.952 36.4555 28.176 36.7275L27.28 37.8475C27.12 37.5755 26.864 37.1595 26.576 36.7755V38.9995H25.104ZM21.776 43.4795V39.4635H20.56V43.4795H21.776ZM23.04 45.1435H20.56V46.3275H19.2V41.0315C18.96 41.4155 18.72 41.7675 18.448 42.0875C18.4 41.6075 18.064 40.4715 17.824 39.9595C18.8 38.6315 19.456 36.6795 19.872 34.5675H18.352V32.8395H23.184V34.5675H21.536C21.312 35.6555 21.024 36.7595 20.672 37.7995H23.04V45.1435ZM28.896 43.7515V45.1115C29.216 45.1435 29.552 45.1595 29.904 45.1595C30.416 45.1595 32.544 45.1595 33.248 45.1435C33.024 45.5115 32.8 46.2795 32.72 46.7435H29.792C27.792 46.7435 26.288 46.3755 25.248 44.8715C24.928 45.7675 24.432 46.5515 23.68 47.1595L22.4 45.9595C23.68 44.9995 24.144 43.3035 24.32 41.3035L25.904 41.5755C25.856 42.0235 25.808 42.4715 25.728 42.9035C26.08 43.7515 26.544 44.3115 27.152 44.6315V40.9035H23.344V39.3675H31.52L31.792 39.2875L33.024 39.6715C32.752 40.5195 32.368 41.5275 32.064 42.1675L30.624 41.6875C30.704 41.4795 30.8 41.1915 30.896 40.9035H28.896V42.2315H32.464V43.7515H28.896ZM42.544 41.5915V42.1035H43.696V41.5915H42.544ZM41.536 42.9035V40.7755H44.784V42.9035H41.536ZM40.88 40.3115V43.3675H45.392V40.3115H40.88ZM39.424 44.4235V39.2715H46.928V44.4235H39.424ZM41.488 35.7035V36.3435H44.768V35.7035H41.488ZM43.936 37.7675H47.744V38.8075H38.688V37.7675H42.336V37.2875H39.984V34.7435H46.368V37.2875H43.936V37.7675ZM38.144 44.9515H48.224V34.2315H38.144V44.9515ZM36.384 32.6635H50.08V47.0635H48.224V46.5035H38.144V47.0635H36.384V32.6635ZM64.72 43.2875H59.696V43.8635H64.72V43.2875ZM59.696 45.4635H64.72V44.8555H59.696V45.4635ZM57.856 47.0795V42.1355H66.656V47.0795H64.72V46.6155H59.696V47.0795H57.856ZM59.056 39.0315L60.192 38.4395C60.56 38.8715 60.96 39.4795 61.12 39.8955L59.952 40.5515C59.808 40.1195 59.424 39.4955 59.056 39.0315ZM64.096 40.5195L63.024 39.9275C63.36 39.5435 63.792 38.8555 64.032 38.3915L65.216 39.0315C64.832 39.6075 64.416 40.1515 64.096 40.5195ZM65.296 35.0635V34.1995H56.832V35.0635H65.296ZM60.928 37.3355H63.504C63.696 37.0635 63.904 36.7595 64.048 36.5035H60.384C60.608 36.7595 60.8 37.0795 60.928 37.3355ZM65.36 40.5995V38.3595H63.008V40.5995H65.36ZM58.928 38.3595V40.5995H61.264V38.3595H58.928ZM67.2 32.7435V36.5035H64.736L65.792 36.7755C65.632 36.9675 65.472 37.1595 65.312 37.3355H67.2V41.6395H57.184V37.3355H59.168C59.04 37.1435 58.912 36.9515 58.768 36.7755L59.584 36.5035H56.832V37.4635C56.832 40.2315 56.576 44.3595 54.928 46.9995C54.56 46.6795 53.728 46.1995 53.232 46.0075C54.8 43.5915 54.928 39.9915 54.928 37.4635V32.7435H67.2Z" fill="#247BA0"/>
</svg>
