<svg width="68" height="68" viewBox="0 0 68 68" fill="none" xmlns="http://www.w3.org/2000/svg">
<rect width="68" height="68" rx="10" fill="#1E1E1E" fill-opacity="0.9"/>
<path d="M27.77 43.133C27.308 43.497 26.51 43.889 25.796 44.155C25.922 44.365 26.062 44.673 26.118 44.869C26.902 44.617 27.826 44.253 28.54 43.833L27.77 43.133ZM25.6 43.861V48.663H26.524V44.155L25.6 43.861ZM25.6 48.187V49.055H32.88V43.777H30.15V44.631H31.928V48.187H25.6ZM26.006 45.989V46.787H28.05V45.989H26.006ZM30.206 45.989V46.787H32.348V45.989H30.206ZM28.68 42.629V50.525H29.632V42.629H28.68ZM25.222 50.329V51.225H32.096V50.329H25.222ZM31.802 50.329V50.483C30.696 52.975 27.63 54.207 24.424 54.627C24.606 54.851 24.802 55.257 24.886 55.523C28.316 54.963 31.508 53.591 32.838 50.609L32.18 50.287L31.998 50.329H31.802ZM27.056 51.127L26.132 51.477C27.448 53.647 29.912 55.019 32.922 55.593C33.062 55.299 33.342 54.893 33.58 54.669C30.64 54.207 28.19 53.003 27.056 51.127ZM20.392 50.063L20.672 51.085C21.974 50.707 23.654 50.175 25.25 49.671L25.124 48.719C23.388 49.223 21.596 49.755 20.392 50.063ZM20.574 45.443V46.423H25.11V45.443H20.574ZM22.52 42.629V54.291C22.52 54.487 22.45 54.557 22.254 54.557C22.086 54.557 21.498 54.557 20.868 54.543C20.994 54.823 21.148 55.243 21.176 55.495C22.114 55.509 22.674 55.481 23.038 55.313C23.402 55.159 23.542 54.865 23.542 54.291V42.629H22.52ZM36.268 43.189V43.931H44.458V46.325H36.184V47.081H45.494V43.189H36.268ZM42.274 48.537H45.494V49.895H42.274V48.537ZM41.28 47.781V50.637H46.516V47.781H41.28ZM36.604 44.771V45.485H44.906V44.771H36.604ZM35.19 47.781V48.579H40.314V47.781H35.19ZM34.644 51.547V52.429H47.356V51.547H34.644ZM43.422 50.623V54.333C43.422 54.515 43.366 54.571 43.114 54.585C42.876 54.599 42.05 54.599 41.112 54.571C41.252 54.851 41.42 55.229 41.462 55.509C42.666 55.509 43.408 55.495 43.87 55.341C44.332 55.201 44.458 54.921 44.458 54.347V50.623H43.422ZM37.234 48.075V50.147H38.214V48.075H37.234ZM34.91 50.119L35.008 50.959C36.492 50.847 38.578 50.693 40.594 50.525V49.727C38.48 49.881 36.338 50.035 34.91 50.119ZM36.968 52.947C37.794 53.437 38.746 54.179 39.194 54.725L39.95 54.039C39.474 53.507 38.508 52.793 37.682 52.345L36.968 52.947Z" fill="white"/>
<path d="M40.031 29.617L44.314 33.899L42.899 35.314L38.617 31.031C37.0237 32.3082 35.042 33.0029 33 33C28.032 33 24 28.968 24 24C24 19.032 28.032 15 33 15C37.968 15 42 19.032 42 24C42.0029 26.042 41.3082 28.0237 40.031 29.617ZM38.025 28.875C39.2941 27.5699 40.0029 25.8204 40 24C40 20.132 36.867 17 33 17C29.132 17 26 20.132 26 24C26 27.867 29.132 31 33 31C34.8204 31.0029 36.5699 30.2941 37.875 29.025L38.025 28.875V28.875Z" fill="white"/>
</svg>
