<svg width="68" height="68" viewBox="0 0 68 68" fill="none" xmlns="http://www.w3.org/2000/svg">
<g clip-path="url(#clip0_391_2214)">
<rect width="68" height="68" rx="10" fill="#1E1E1E" fill-opacity="0.9"/>
<circle cx="31.625" cy="28.75" r="0.75" fill="#D9D9D9"/>
<circle cx="34.625" cy="28.75" r="0.75" fill="#D9D9D9"/>
<circle cx="37.625" cy="28.75" r="0.75" fill="#D9D9D9"/>
<rect x="21.75" y="13.75" width="24.5" height="18.5" rx="3.25" stroke="white" stroke-width="1.5"/>
<path d="M15.87 48.542V51.734C15.87 52.728 16.094 53.022 17.074 53.022C17.27 53.022 18.18 53.022 18.39 53.022C19.188 53.022 19.454 52.588 19.552 50.824C19.286 50.754 18.88 50.614 18.684 50.446C18.642 51.93 18.586 52.126 18.264 52.126C18.082 52.126 17.354 52.126 17.214 52.126C16.892 52.126 16.836 52.07 16.836 51.734V48.542H15.87ZM13.588 44.132H17.48V45.616H13.588V44.132ZM13.588 46.442H17.48V47.94H13.588V46.442ZM13.588 41.836H17.48V43.292H13.588V41.836ZM12.608 40.968V48.808H18.488V40.968H12.608ZM13.756 48.514C13.56 50.306 13.042 51.622 10.956 52.322C11.166 52.518 11.46 52.896 11.572 53.134C13.896 52.252 14.54 50.698 14.778 48.514H13.756ZM6.77 42.872V43.838H11.138V42.872H6.77ZM8.814 47.058V53.12H9.836V45.826L8.814 47.058ZM8.814 40.254V43.348H9.836V40.254H8.814ZM9.836 45.966L9.22 46.526C9.78 47.03 11.054 48.374 11.53 49.004L12.174 48.122C11.81 47.758 10.284 46.33 9.836 45.966ZM10.788 42.872V43.096C9.976 45.224 8.072 47.352 6.266 48.472C6.434 48.654 6.7 49.144 6.798 49.41C8.716 48.122 10.774 45.784 11.768 43.222L11.18 42.83L10.998 42.872H10.788ZM21.848 45.714V53.106H22.856V46.526H31.186V53.036H32.222V45.714H21.848ZM25.978 44.286C25.782 44.79 25.418 45.504 25.11 45.98L26.02 46.218C26.342 45.784 26.762 45.154 27.112 44.51L25.978 44.286ZM22.478 51.762V52.56H31.578V51.762H22.478ZM29.072 47.436V47.59C28.26 49.354 26.076 50.586 24.046 51.09C24.214 51.258 24.424 51.538 24.522 51.734C26.692 51.104 28.946 49.802 29.926 47.674L29.38 47.408L29.226 47.436H29.072ZM26.706 46.82C26.09 47.702 24.914 48.71 23.318 49.424C23.5 49.55 23.738 49.774 23.864 49.956C25.544 49.13 26.748 48.052 27.532 46.974L26.706 46.82ZM26.51 47.436L25.992 48.052H29.352V47.436H26.51ZM23.752 48.052C25.782 48.892 28.288 50.264 29.534 51.23L30.08 50.642C28.792 49.676 26.272 48.36 24.256 47.548L23.752 48.052ZM26.44 40.24V41.822H27.518V40.24H26.44ZM24.83 42.018C24.508 43.418 23.654 44.174 20.798 44.552C20.994 44.762 21.246 45.168 21.33 45.406C24.48 44.888 25.53 43.88 25.922 42.018H24.83ZM27.714 41.948V43.67C27.714 44.594 28.008 44.832 29.198 44.832C29.436 44.832 30.822 44.832 31.074 44.832C31.97 44.832 32.25 44.524 32.348 43.32C32.068 43.25 31.662 43.124 31.452 42.984C31.41 43.88 31.34 44.006 30.948 44.006C30.654 44.006 29.534 44.006 29.31 44.006C28.834 44.006 28.75 43.95 28.75 43.67V41.948H27.714ZM20.994 41.318V43.558H22.002V42.158H32.11V43.446H33.16V41.318H20.994ZM39.6 41.472V42.48H46.53V41.472H39.6ZM46.082 41.472V41.752C45.928 48.668 45.732 51.188 45.284 51.72C45.13 51.916 44.99 51.972 44.724 51.958C44.416 51.958 43.674 51.958 42.862 51.888C43.044 52.196 43.17 52.658 43.198 52.966C43.94 53.022 44.71 53.036 45.172 52.98C45.648 52.91 45.956 52.784 46.278 52.35C46.81 51.636 46.978 49.256 47.146 42.074C47.146 41.92 47.16 41.472 47.16 41.472H46.082ZM34.392 44.748L34.588 45.714L40.496 44.44L40.314 43.502L34.392 44.748ZM36.1 40.646V48.864C36.1 50.11 36.366 50.46 37.416 50.46C37.626 50.46 38.676 50.46 38.914 50.46C39.866 50.46 40.118 49.858 40.23 47.912C39.936 47.828 39.516 47.646 39.292 47.45C39.236 49.102 39.18 49.452 38.83 49.452C38.592 49.452 37.738 49.452 37.57 49.452C37.192 49.452 37.136 49.382 37.136 48.878V40.646H36.1ZM42.092 41.92C42.008 46.19 41.938 50.334 38.312 52.35C38.578 52.546 38.914 52.91 39.068 53.176C42.876 50.922 43.044 46.526 43.128 41.92H42.092ZM55.224 40.24C54.804 41.416 53.894 42.83 52.48 43.852C52.704 43.978 53.026 44.272 53.194 44.496C54.734 43.32 55.658 41.808 56.232 40.394L55.224 40.24ZM55.28 41.318L54.762 42.172H58.29V41.318H55.28ZM55.756 44.104C55.7 45.364 55.42 46.092 54.342 46.526C54.51 46.652 54.748 46.932 54.846 47.128C56.12 46.568 56.47 45.63 56.568 44.104H55.756ZM57.506 44.132V45.742C57.506 46.54 57.702 46.722 58.542 46.722C58.696 46.722 59.536 46.722 59.704 46.722C60.222 46.722 60.474 46.568 60.558 46.162C60.32 46.12 59.998 46.022 59.83 45.896C59.816 45.966 59.76 45.994 59.564 45.994C59.396 45.994 58.766 45.994 58.64 45.994C58.346 45.994 58.318 45.966 58.318 45.742V44.132H57.506ZM52.676 48.682V49.592H61.3V48.682H52.676ZM57.52 48.99L56.596 49.116C57.24 51.23 58.584 52.532 60.88 53.092C61.02 52.826 61.272 52.42 61.51 52.21C59.396 51.804 58.08 50.712 57.52 48.99ZM54.37 43.558H53.46V48.178H54.37V44.412H60.124V43.558H54.37ZM59.844 43.558V48.122H60.768V43.558H59.844ZM57.94 41.318V41.514C57.716 42.158 57.226 43.152 56.806 43.74C57.016 43.852 57.338 44.034 57.52 44.174C57.996 43.544 58.612 42.55 58.976 41.71L58.318 41.276L58.15 41.318H57.94ZM56.526 47.422C56.316 50.11 55.686 51.636 52.186 52.35C52.382 52.546 52.634 52.91 52.718 53.162C56.47 52.294 57.254 50.516 57.506 47.422H56.526ZM48.378 47.506L48.658 48.528C49.848 48.15 51.388 47.646 52.844 47.142L52.704 46.176C51.108 46.694 49.47 47.198 48.378 47.506ZM48.574 43.068V44.048H52.83V43.068H48.574ZM50.338 40.254V51.902C50.338 52.112 50.254 52.154 50.086 52.154C49.918 52.168 49.386 52.168 48.77 52.154C48.91 52.448 49.036 52.882 49.078 53.134C49.96 53.134 50.506 53.106 50.828 52.938C51.178 52.77 51.318 52.49 51.318 51.902V40.254H50.338Z" fill="white"/>
</g>
<defs>
<clipPath id="clip0_391_2214">
<rect width="68" height="68" fill="white"/>
</clipPath>
</defs>
</svg>
